<svg xmlns="http://www.w3.org/2000/svg" xmlns:xlink="http://www.w3.org/1999/xlink" version="1.1" x="0px" y="0px" viewBox="0 0 96 80"><title>antarctica, south, polar, region, earth, hemisphere</title><desc>Created with Sketch.</desc><g stroke="none" stroke-width="1" fill="none" fill-rule="evenodd"><g transform="translate(-187.000000, -196.000000)" fill="#1e293b" fill-rule="nonzero"><path d="M234.215592,196.995702 C234.215848,196.970529 234.21704,196.945179 234.219199,196.919687 C234.266033,196.366728 234.750101,195.956617 235.300397,196.003677 L245.433424,196.870236 C245.568418,196.88178 245.69967,196.920768 245.819212,196.984833 L252.066514,200.33285 L258.715597,200.33285 C259.110785,200.33285 259.468907,200.56671 259.629408,200.929585 L261.138627,204.341761 L272.689552,206.414407 C273.037079,206.476766 273.326136,206.718629 273.450091,207.050776 L274.743669,210.51701 C274.785773,210.62983 274.80734,210.74934 274.80734,210.869833 L274.80734,215.434936 L276.88638,220.448778 C276.985267,220.687255 276.988944,220.954841 276.896648,221.195971 L275.050984,226.017921 L281.196683,229.491605 C281.413153,229.613959 281.576565,229.812879 281.655105,230.04964 L282.948683,233.949153 C282.982672,234.051613 283,234.158909 283,234.266911 L283,247.265289 C283,247.4432 282.952992,247.617922 282.863779,247.771598 L279.981651,252.736297 L279.981651,255.930873 C279.981651,256.295798 279.78476,256.632038 279.467294,256.809261 L275.856993,258.824689 L272.545803,265.479115 C272.478218,265.614941 272.380874,265.733607 272.261087,265.826197 L261.050078,274.491782 C260.875269,274.6269 260.660911,274.700161 260.440367,274.700161 L254.639738,274.700161 L252.263728,275.893915 C252.062376,275.995078 251.832946,276.025013 251.61256,275.978878 L241.263936,273.812481 C240.800217,273.715406 240.46789,273.304731 240.46789,272.828764 L240.46789,268.495971 C240.46789,268.339975 240.504035,268.186121 240.573463,268.046593 L242.50582,264.163179 L241.080059,261.297858 L239.435435,262.39958 C239.191337,262.563099 238.888094,262.610665 238.606013,262.52968 L227.194389,259.253438 L226.313762,260.43329 C226.124908,260.686314 225.828519,260.835225 225.513762,260.835225 L222.16324,260.835225 L217.94841,261.682271 C217.699775,261.732238 217.441533,261.685433 217.22594,261.551325 L208.170894,255.918694 C207.982784,255.801682 207.838601,255.62529 207.760919,255.417137 L205.173763,248.48467 C205.115968,248.329801 205.09711,248.162992 205.118865,247.999044 L205.672725,243.824988 L202.81753,245.911542 C202.305604,246.285653 201.580927,246.093744 201.318992,245.514698 L199.163029,240.748626 C199.074312,240.552505 199.050671,240.332926 199.095593,240.122278 L200.389171,234.056368 C200.443748,233.800445 200.595546,233.576018 200.812273,233.430835 L202.491887,232.305674 L201.44849,230.995116 C201.306639,230.816945 201.229359,230.595569 201.229359,230.367398 L201.229359,228.772562 L197.055047,228.772562 C196.651346,228.772562 196.287239,228.52865 196.13197,228.154199 L194.003005,223.019959 L187.13971,211.382102 C187.030951,211.197684 186.983736,210.98315 187.004964,210.769847 L187.867349,202.104263 C187.958038,201.192986 189.11554,200.868687 189.662386,201.601344 L193.54312,206.800695 C193.592926,206.867425 193.63427,206.940126 193.666197,207.017122 L195.715041,211.958141 L201.843061,216.473769 L206.451836,218.157797 C206.589161,218.207975 206.713875,218.287785 206.817199,218.39161 L209.033875,220.619012 L213.275969,219.844088 L218.084109,219.038853 L219.916084,216.829846 L221.890097,212.466 L221.077827,207.568793 C220.976238,206.956312 221.446281,206.39876 222.064221,206.39876 L222.788991,206.39876 L222.788991,203.504085 C222.788991,203.222423 222.906638,202.953691 223.113267,202.763364 L228.287579,197.997293 C228.437352,197.859336 228.625393,197.770495 228.826666,197.742599 L234.215592,196.995702 Z"/></g></g>
</svg>